<svg xmlns="http://www.w3.org/2000/svg" viewBox="0 0 32 32" fill="none">
  <rect width="32" height="32" rx="8" fill="#000000"/>
  <!-- Soft mint glow behind S -->
  <circle cx="16" cy="16" r="9" fill="#6fb38a" fill-opacity="0.22"/>
  <!-- S monogram -->
  <path
    fill="#6fb38a"
    d="M9.75 12.05c0-2.85 2.4-4.9 6.25-4.9 3.2 0 5.55 1.55 6.4 3.85l-2.7 1.2c-.5-1.2-1.7-2-3.65-2-1.95 0-3.15.95-3.15 2.25 0 1.25.9 1.95 3.15 2.55l1.5.4c3.2.85 4.85 2.4 4.85 4.9 0 3.2-2.55 5.25-6.3 5.25-3.55 0-6.15-1.65-7-4.3l2.75-1.25c.55 1.55 2 2.5 4.25 2.5 2.15 0 3.5-1 3.5-2.45 0-1.25-.9-1.95-3.2-2.6l-1.55-.4c-3.2-.85-4.8-2.4-4.8-4.9Z"
  />
</svg>
