<?xml version="1.0" encoding="UTF-8"?>
<svg xmlns="http://www.w3.org/2000/svg" viewBox="0 0 512 512" fill="none">
  <rect width="512" height="512" rx="112" fill="#000000"/>
  <circle cx="256" cy="256" r="144" fill="#6fb38a" fill-opacity="0.22"/>
  <path fill="#6fb38a" d="M156 192.8c0-45.6 38.4-78.4 100-78.4 51.2 0 88.8 24.8 102.4 61.6l-43.2 19.2c-8-19.2-27.2-32-58.4-32-31.2 0-50.4 15.2-50.4 36 0 20 14.4 31.2 50.4 40.8l24 6.4c51.2 13.6 77.6 38.4 77.6 78.4 0 51.2-40.8 84-100.8 84-56.8 0-98.4-26.4-112-68.8l44-20c8.8 24.8 32 40 68 40 34.4 0 56-16 56-39.2 0-20-14.4-31.2-51.2-41.6l-24.8-6.4c-51.2-13.6-76.8-38.4-76.8-78.4Z"/>
</svg>